name D:\school\WTK\thesis\model\3dpredictsim\Results\batch_windlass\Pog_s1_tmt_aCst_d00_k800_WL20_ig24_act_TTC.mot
datacolumns 128
datarows 4
range 1.23554526 1.27261162
endheader
time	pelvis_tilt	pelvis_list	pelvis_rotation	pelvis_tx	pelvis_ty	pelvis_tz	hip_flexion_l	hip_adduction_l	hip_rotation_l	hip_flexion_r	hip_adduction_r	hip_rotation_r	knee_angle_l	knee_angle_r	ankle_angle_l	ankle_angle_r	subtalar_angle_l	subtalar_angle_r	tmt_angle_l	tmt_angle_r	mtp_angle_l	mtp_angle_r	lumbar_extension	lumbar_bending	lumbar_rotation	arm_flex_l	arm_add_l	arm_rot_l	arm_flex_r	arm_add_r	arm_rot_r	elbow_flex_l	elbow_flex_r	pro_sup_l	pro_sup_r	glut_med1_l/activation	glut_med2_l/activation	glut_med3_l/activation	glut_min1_l/activation	glut_min2_l/activation	glut_min3_l/activation	semimem_l/activation	semiten_l/activation	bifemlh_l/activation	bifemsh_l/activation	sar_l/activation	add_long_l/activation	add_brev_l/activation	add_mag1_l/activation	add_mag2_l/activation	add_mag3_l/activation	tfl_l/activation	pect_l/activation	grac_l/activation	glut_max1_l/activation	glut_max2_l/activation	glut_max3_l/activation	iliacus_l/activation	psoas_l/activation	quad_fem_l/activation	gem_l/activation	peri_l/activation	rect_fem_l/activation	vas_med_l/activation	vas_int_l/activation	vas_lat_l/activation	med_gas_l/activation	lat_gas_l/activation	soleus_l/activation	tib_post_l/activation	flex_dig_l/activation	flex_hal_l/activation	tib_ant_l/activation	per_brev_l/activation	per_long_l/activation	per_tert_l/activation	ext_dig_l/activation	ext_hal_l/activation	ercspn_l/activation	intobl_l/activation	extobl_l/activation	glut_med1_r/activation	glut_med2_r/activation	glut_med3_r/activation	glut_min1_r/activation	glut_min2_r/activation	glut_min3_r/activation	semimem_r/activation	semiten_r/activation	bifemlh_r/activation	bifemsh_r/activation	sar_r/activation	add_long_r/activation	add_brev_r/activation	add_mag1_r/activation	add_mag2_r/activation	add_mag3_r/activation	tfl_r/activation	pect_r/activation	grac_r/activation	glut_max1_r/activation	glut_max2_r/activation	glut_max3_r/activation	iliacus_r/activation	psoas_r/activation	quad_fem_r/activation	gem_r/activation	peri_r/activation	rect_fem_r/activation	vas_med_r/activation	vas_int_r/activation	vas_lat_r/activation	med_gas_r/activation	lat_gas_r/activation	soleus_r/activation	tib_post_r/activation	flex_dig_r/activation	flex_hal_r/activation	tib_ant_r/activation	per_brev_r/activation	per_long_r/activation	per_tert_r/activation	ext_dig_r/activation	ext_hal_r/activation	ercspn_r/activation	intobl_r/activation	extobl_r/activation	
          1.23554526	         -2.92894194	         -0.40789805	         10.10773249	          1.54443158	          0.85115129	         -0.00170873	        -17.14842672	         -3.35675785	          8.89850689	         34.11174244	         -2.13690038	         -2.43778483	        -16.77552244	        -20.71410751	        -12.28785415	         -6.10113750	         18.44337362	         10.18973797	         -7.63168276	          0.12370124	         37.37691895	         -0.53822198	          1.36236713	         -2.96401699	         -3.76250801	          2.29326592	        -13.51105590	         15.70533358	        -17.26632684	        -13.87187865	         10.64609302	         44.98378859	         21.87536512	         86.51662706	         86.51662706	          0.17680678	          0.06182895	          0.05002706	          0.19606023	          0.11620401	          0.07792545	          0.05125459	          0.05032982	          0.05005914	          0.05002877	          0.08511423	          0.15322810	          0.05621622	          0.05004737	          0.05014241	          0.06041194	          0.16764518	          0.05004083	          0.05001418	          0.05006733	          0.05005380	          0.05008193	          0.31805923	          0.44305472	          0.05000282	          0.05001723	          0.05000970	          0.21518928	          0.06031962	          0.06052980	          0.09766274	          0.14650491	          0.20266013	          0.05000068	          0.15041716	          0.16246533	          0.16228233	          0.20888931	          0.55325616	          0.39327045	          0.47908724	          0.44369698	          0.05000899	          0.05000016	          0.06829853	          0.06677464	          0.05000560	          0.05000746	          0.05000938	          0.05001693	          0.05001408	          0.05000717	          0.10563497	          0.06009097	          0.09127656	          0.10572644	          0.05248796	          0.07294625	          0.06032480	          0.18878303	          0.13028881	          0.07441036	          0.07269849	          0.06013391	          0.10151813	          0.05007503	          0.06794841	          0.08512403	          0.08768552	          0.08768761	          0.15669231	          0.05931523	          0.05207586	          0.06034517	          0.07163979	          0.07493993	          0.07889139	          0.06029696	          0.06029842	          0.06029630	          0.06623514	          0.05005119	          0.06030240	          0.27271650	          0.09920992	          0.06030344	          0.21906267	          0.55333857	          0.06287420	          0.05000052	          0.15915543	          0.15844534	
          1.24790072	         -2.92112873	         -0.38701506	         10.30394068	          1.56486943	          0.84957381	         -0.00133428	        -17.10929833	         -3.62544684	          8.65919302	         33.62325219	         -1.88399846	         -2.18886989	        -18.27076398	        -21.34382658	        -15.58361276	         -6.01920114	         18.77319557	          9.68701066	         -8.02572389	          0.19416023	         38.07527661	         -0.46021711	          1.60582889	         -2.71620687	         -3.84057456	          1.82855153	        -13.58158146	         16.02682677	        -18.77965609	        -13.85114916	         11.04726586	         46.11351119	         21.69445425	         86.51662706	         86.51662706	          0.14662175	          0.05127353	          0.05000452	          0.16258517	          0.09636324	          0.06462447	          0.05425312	          0.05001100	          0.05001498	          0.05003487	          0.07270962	          0.20503745	          0.18532930	          0.08350393	          0.05008703	          0.05011518	          0.13901975	          0.10292121	          0.05770997	          0.05004483	          0.05002543	          0.05001669	          0.26374838	          0.36739984	          0.05001339	          0.05005862	          0.06029810	          0.17844369	          0.05002336	          0.05019724	          0.09101272	          0.12148780	          0.16805411	          0.05000136	          0.12473206	          0.13472393	          0.13457153	          0.32491466	          0.48152280	          0.35274025	          0.71433975	          0.58937986	          0.14595117	          0.06135127	          0.05669788	          0.06255096	          0.15384902	          0.12020545	          0.05003575	          0.05001533	          0.05003877	          0.05030502	          0.08759772	          0.05808211	          0.07569593	          0.08767374	          0.06989801	          0.06049148	          0.05002590	          0.15655281	          0.19101919	          0.12575032	          0.06028607	          0.05002461	          0.08418929	          0.13810448	          0.15427703	          0.15102264	          0.07271286	          0.07271453	          0.12994254	          0.05001648	          0.10942175	          0.05004157	          0.20256708	          0.18553614	          0.17639488	          0.05000066	          0.05000191	          0.05000009	          0.08613335	          0.05002766	          0.05000651	          0.49831019	          0.08226900	          0.05000611	          0.57173743	          0.60978853	          0.48612625	          0.05000057	          0.13197808	          0.13138923	
          1.26025617	         -2.90664241	         -0.37608801	         10.45337665	          1.58532724	          0.84752825	         -0.00097098	        -16.82825348	         -3.85476143	          8.42065990	         33.03487618	         -1.57049171	         -1.87483217	        -20.28516748	        -22.64685694	        -18.35152847	         -5.54818411	         19.01274416	          9.10222858	         -7.92143311	          0.07782703	         36.71738489	         -0.41451565	          1.83856211	         -2.43355298	         -3.89692790	          1.33401971	        -13.67486879	         16.31503008	        -20.20821019	        -13.84477187	         11.57217401	         47.23021282	         21.40208759	         86.51662706	         86.51662706	          0.12168359	          0.05004181	          0.05002201	          0.13482556	          0.07991047	          0.05359992	          0.08925471	          0.05000487	          0.05000615	          0.05000316	          0.06030530	          0.17288886	          0.22926039	          0.09314564	          0.05094555	          0.05001469	          0.11528245	          0.08537388	          0.05013574	          0.05023313	          0.05016382	          0.05006488	          0.21871147	          0.30466439	          0.06029357	          0.05012323	          0.05000461	          0.14797272	          0.08767701	          0.08767135	          0.07839395	          0.10074273	          0.13935756	          0.05004184	          0.10343297	          0.11171976	          0.11159265	          0.28676695	          0.42458956	          0.31928244	          0.71276081	          0.77484110	          0.38323218	          0.12387128	          0.05000185	          0.05187028	          0.19822592	          0.33560983	          0.47909751	          0.09450709	          0.05022553	          0.38626262	          0.07264074	          0.05002019	          0.06365463	          0.07270370	          0.06026425	          0.07270542	          0.10569162	          0.12982564	          0.15841331	          0.15683248	          0.05000507	          0.06155752	          0.07270524	          0.23843257	          0.23618477	          0.21348166	          0.06030009	          0.06029907	          0.10775478	          0.22371251	          0.33976487	          0.05000123	          0.21780704	          0.23646613	          0.23853719	          0.05000271	          0.05000596	          0.05364407	          0.15967927	          0.05002453	          0.05004189	          0.41321889	          0.06978348	          0.05005886	          0.47410830	          0.50566152	          0.40311697	          0.06275116	          0.10944154	          0.10895323	
          1.27261162	         -2.88942247	         -0.38083408	         10.54693155	          1.60545521	          0.84555557	         -0.00060548	        -16.30004251	         -4.05737787	          8.18167192	         32.42174633	         -1.20001228	         -1.53777073	        -22.73432623	        -24.18634459	        -20.67573098	         -4.14385976	         19.15103265	          8.51817633	         -7.32228866	          0.44635717	         33.19930591	         -0.43966418	          2.04742852	         -2.11674606	         -3.93480045	          0.88590235	        -13.75506482	         16.59152244	        -21.44216030	        -13.83233798	         12.22496198	         48.18109503	         20.91098509	         86.51662706	         86.51662706	          0.10090728	          0.05000373	          0.05000138	          0.11180645	          0.06626679	          0.05000593	          0.12705485	          0.05000423	          0.05000933	          0.05000164	          0.05001973	          0.21524386	          0.19976541	          0.33700814	          0.14766971	          0.12751567	          0.09559806	          0.07080299	          0.05000414	          0.05002738	          0.05001940	          0.05001463	          0.18136475	          0.25264297	          0.05000183	          0.05000888	          0.05000427	          0.12270497	          0.07271183	          0.07271169	          0.07271178	          0.08354051	          0.11556164	          0.05000307	          0.08577098	          0.09264414	          0.09253778	          0.39984959	          0.36211489	          0.27696211	          0.60274572	          0.64253024	          0.31779201	          0.16189527	          0.05000033	          0.05000091	          0.29929318	          0.49551768	          0.62414764	          0.07837249	          0.30123651	          0.42045514	          0.06023701	          0.05001165	          0.05278577	          0.06028955	          0.05000548	          0.06029084	          0.08764431	          0.10765889	          0.13136875	          0.13009718	          0.05000470	          0.05105006	          0.06029308	          0.35221342	          0.29027521	          0.19623950	          0.05000369	          0.05000305	          0.27032871	          0.18551400	          0.28174951	          0.05000545	          0.44379045	          0.42889026	          0.40329327	          0.05000292	          0.05000579	          0.05000027	          0.19387257	          0.11219360	          0.05013021	          0.34265798	          0.05786939	          0.05000555	          0.39315049	          0.41931519	          0.33428426	          0.05473081	          0.09075332	          0.09034842	
